# xmcd
#
# Track frame offsets: 
#        150
#        15875
#        29554
#        43590
#        56984
#        70912
#        82635
#        95960
#        106502
#        118383
#        130475
#        141050
#        155840
#        168992
#        181472
#        192939
#        207717
#        219274
#        232472
#        246314
#        259018
#
# Disc length: 3619 seconds
#
# Revision: 5
# Processed by: cddbd v1.5.2PL0 Copyright (c) Steve Scherf et al.
# Submitted via: ExactAudioCopy v0.99pb4
#
DISCID=3c0e2115
DTITLE=Fats Waller - The Sheik Of Araby  [CD 4-10]
DYEAR=2005
DGENRE=Jazz, Swing
TTITLE0=Skrontch
TTITLE1=I Simply Adore You
TTITLE2=The Sheik Of Araby  (1938)
TTITLE3=Hold My Hand
TTITLE4=Inside  (This Heart Of Mine)
TTITLE5=There's Honey On The Moon Tonight
TTITLE6=If I Were You
TTITLE7=(Take Me Back)  To The Wide Open Places
TTITLE8=On The Bumpy Road To Love
TTITLE9=Fair And Square
TTITLE10=We, The People
TTITLE11=Don't Try Your Jive On Me
TTITLE12=Ain't Misbehavin' 
TTITLE13=The Flat Foot Floogie
TTITLE14=Pent Up In A Penthouse
TTITLE15=Music, Maestro, Please
TTITLE16=A-Tisket, A-Tasket
TTITLE17=Swing Low, Sweet Chariot
TTITLE18=All God's Chillun Got Wings
TTITLE19=Go Down, Moses
TTITLE20=Deep River
EXTD=
EXTT0=
EXTT1=
EXTT2=
EXTT3=
EXTT4=
EXTT5=
EXTT6=
EXTT7=
EXTT8=
EXTT9=
EXTT10=
EXTT11=
EXTT12=
EXTT13=
EXTT14=
EXTT15=
EXTT16=
EXTT17=
EXTT18=
EXTT19=
EXTT20=
PLAYORDER=
